<svg xmlns="http://www.w3.org/2000/svg" xmlns:xlink="http://www.w3.org/1999/xlink" width="120" zoomAndPan="magnify" viewBox="0 0 90 89.999999" height="120" preserveAspectRatio="xMidYMid meet" version="1.0"><defs><clipPath id="beeefa9222"><path d="M 13 14.597656 L 82.746094 14.597656 L 82.746094 75.347656 L 13 75.347656 Z M 13 14.597656 " clip-rule="nonzero"/></clipPath></defs><g clip-path="url(#beeefa9222)"><path fill="#400036" d="M 82.566406 20.679688 C 82.480469 21.007812 82.359375 21.410156 82.082031 21.914062 C 81.941406 22.171875 81.925781 22.15625 81.179688 23.164062 C 80.675781 23.839844 80.417969 24.1875 80.242188 24.464844 C 80.15625 24.605469 80.019531 24.847656 79.828125 25.144531 C 79.636719 25.421875 79.480469 25.628906 79.394531 25.753906 C 79.378906 25.789062 79.359375 25.804688 79.359375 25.804688 C 78.960938 26.308594 78.753906 26.570312 77.660156 28.933594 C 77.644531 28.96875 77.625 28.984375 77.625 28.984375 C 77.625 28.984375 77.609375 29.003906 77.609375 29.035156 C 77.417969 29.417969 77.210938 29.75 77.210938 29.75 C 77.175781 29.800781 77.160156 29.835938 77.160156 29.835938 C 76.96875 30.113281 76.550781 30.859375 76.152344 31.574219 L 79.515625 34.597656 C 79.480469 34.753906 76.292969 39.410156 75.410156 40.714844 C 74.542969 42 73.65625 43.285156 72.792969 44.570312 C 72.394531 45.164062 71.996094 45.734375 71.59375 46.328125 C 71.179688 46.933594 70.675781 47.472656 70.105469 47.925781 L 62.6875 53.78125 C 61.804688 54.476562 60.433594 56.179688 60.433594 57.328125 C 60.433594 59.566406 60.070312 63.6875 59.964844 65.929688 C 59.808594 69.246094 59.964844 72.269531 60.140625 75.347656 L 32.566406 75.347656 C 32.410156 67.753906 31.472656 56.875 31.472656 56.875 C 31.507812 55.988281 31.214844 55.101562 30.640625 54.425781 C 29.152344 52.652344 27.625 50.914062 26.136719 49.140625 C 23.363281 45.839844 21.144531 42.15625 18.507812 38.769531 L 13.828125 32.753906 L 19.652344 29.125 C 19.53125 28.585938 19.429688 28.027344 19.308594 27.421875 C 19.167969 26.707031 18.976562 26.011719 18.855469 25.300781 C 18.804688 25.039062 18.71875 24.519531 18.492188 23.875 C 18.457031 23.804688 18.40625 23.648438 18.285156 23.335938 C 18.023438 22.695312 17.902344 22.382812 17.800781 22.171875 C 17.710938 21.964844 17.523438 21.566406 17.226562 21.078125 C 17 20.695312 16.949219 20.644531 16.828125 20.382812 C 16.742188 20.191406 16.691406 20.019531 16.636719 19.863281 C 16.601562 19.707031 16.566406 19.566406 16.550781 19.460938 C 16.464844 19.011719 16.480469 18.664062 16.5 18.28125 C 16.515625 17.878906 16.566406 17.53125 16.671875 16.839844 C 16.722656 16.507812 16.757812 16.28125 16.914062 16.019531 C 16.914062 16.019531 16.914062 16.019531 16.914062 16.003906 C 16.96875 15.917969 17.15625 15.621094 17.398438 15.515625 C 17.625 15.429688 17.710938 15.429688 17.710938 15.429688 C 17.746094 15.429688 17.816406 15.429688 17.867188 15.414062 C 17.921875 15.378906 17.9375 15.328125 17.953125 15.292969 C 18.007812 15.1875 18.164062 15.136719 18.351562 15.066406 C 18.542969 15.011719 18.769531 14.925781 18.90625 15.03125 C 18.941406 15.066406 18.976562 15.101562 19.046875 15.101562 C 19.117188 15.101562 19.152344 15.066406 19.183594 15.03125 C 19.289062 14.945312 19.429688 14.855469 19.515625 14.824219 C 19.652344 14.769531 19.773438 14.804688 19.984375 14.839844 C 20.121094 14.875 20.191406 14.890625 20.261719 14.945312 C 20.347656 15.011719 20.363281 15.101562 20.433594 15.101562 C 20.46875 15.101562 20.46875 15.101562 20.570312 15.046875 C 20.675781 14.996094 20.726562 14.980469 20.761719 14.980469 C 20.867188 14.980469 20.902344 15.046875 20.96875 15.03125 C 21.003906 15.011719 21.003906 14.996094 21.039062 14.925781 C 21.058594 14.910156 21.125 14.789062 21.195312 14.71875 C 21.28125 14.597656 21.457031 14.613281 21.472656 14.613281 C 21.507812 14.613281 21.628906 14.632812 21.835938 14.824219 C 22.046875 15.011719 21.992188 15.066406 22.167969 15.203125 C 22.289062 15.328125 22.324219 15.292969 22.632812 15.5 C 22.808594 15.621094 22.894531 15.671875 22.945312 15.726562 C 23 15.777344 23.03125 15.847656 23.066406 15.917969 C 23.121094 16.019531 23.152344 16.175781 23.207031 16.421875 C 23.292969 16.769531 23.378906 17.117188 23.414062 17.273438 C 23.519531 17.65625 23.554688 17.757812 23.570312 17.984375 C 23.585938 18.195312 23.605469 18.367188 23.535156 18.558594 C 23.484375 18.730469 23.378906 18.820312 23.1875 19.0625 C 22.875 19.445312 22.964844 19.410156 22.652344 19.773438 C 22.601562 19.828125 22.566406 19.878906 22.53125 19.929688 C 22.269531 20.226562 22.167969 20.296875 22.0625 20.558594 C 21.992188 20.730469 21.957031 20.871094 21.941406 20.992188 C 21.871094 21.355469 21.921875 21.617188 21.992188 22.15625 C 21.992188 22.15625 22.0625 22.640625 22.234375 23.265625 C 22.253906 23.355469 22.339844 23.667969 22.460938 24.015625 C 22.652344 24.570312 22.84375 25.058594 22.859375 25.09375 C 22.910156 25.214844 23.015625 25.457031 23.171875 25.769531 C 23.308594 26.066406 23.484375 26.359375 23.65625 26.640625 L 24.054688 26.394531 L 26.5 29.75 C 28.421875 32.40625 30.347656 35.050781 32.269531 37.707031 C 34.195312 40.367188 35.996094 43.441406 38.421875 45.667969 C 38.910156 46.101562 40.640625 47.875 41.351562 47.5625 C 41.457031 47.507812 41.507812 47.4375 41.507812 47.421875 C 41.507812 47.402344 41.578125 47.316406 41.558594 47.230469 C 41.542969 47.089844 41.402344 47.003906 41.265625 46.898438 C 41.265625 46.898438 41.144531 46.8125 40.761719 46.429688 C 40.519531 46.1875 40.503906 46.015625 40.3125 45.578125 C 40.085938 45.074219 40.035156 45.128906 39.707031 44.503906 C 39.480469 44.066406 39.273438 43.683594 39.117188 43.128906 C 39.046875 42.902344 39.117188 43.078125 38.875 41.738281 C 38.839844 41.53125 38.769531 41.164062 38.804688 40.800781 C 38.820312 40.523438 38.910156 40.261719 38.910156 40.246094 C 38.941406 40.140625 38.976562 40.054688 38.996094 40.019531 C 39.011719 39.949219 39.066406 39.84375 39.132812 39.707031 C 39.1875 39.601562 39.21875 39.53125 39.253906 39.445312 C 39.289062 39.375 39.308594 39.304688 39.308594 39.304688 C 39.308594 39.304688 39.324219 39.273438 39.324219 39.253906 C 39.410156 38.925781 39.375 38.28125 39.375 38.28125 C 39.359375 38.074219 39.359375 38.019531 39.359375 37.863281 C 39.359375 37.742188 39.375 37.691406 39.375 37.570312 C 39.375 37.429688 39.359375 37.308594 39.359375 37.203125 C 39.324219 36.839844 39.308594 36.613281 39.253906 36.316406 C 39.238281 36.214844 39.203125 36.039062 39.1875 35.796875 C 39.1875 35.746094 39.1875 35.691406 39.1875 35.65625 C 39.1875 35.585938 39.1875 35.535156 39.1875 35.464844 C 39.1875 35.082031 39.21875 34.804688 39.203125 34.441406 C 39.203125 34.421875 39.203125 34.421875 39.203125 34.40625 C 39.1875 34.234375 39.21875 33.902344 39.273438 33.519531 C 39.359375 32.84375 39.515625 32.007812 39.652344 31.625 C 39.6875 31.523438 39.722656 31.433594 39.757812 31.417969 C 39.863281 31.332031 40.226562 31.035156 41.039062 30.6875 C 41.265625 30.582031 41.542969 30.496094 41.855469 30.390625 C 42.824219 30.078125 43.96875 29.714844 45.496094 29.800781 C 46.066406 29.835938 46.96875 29.90625 48.007812 30.375 C 48.199219 30.460938 48.769531 30.738281 49.375 31.242188 C 49.828125 31.609375 50.296875 32.113281 50.675781 32.753906 C 50.695312 32.789062 50.730469 32.84375 50.746094 32.878906 C 51.179688 33.675781 51.316406 34.421875 51.40625 34.875 C 51.542969 35.710938 51.527344 36.421875 51.507812 36.683594 C 51.507812 36.683594 51.507812 36.699219 51.507812 36.699219 C 51.492188 36.910156 51.492188 37.257812 51.421875 37.636719 C 51.386719 37.917969 51.351562 38.039062 51.335938 38.246094 C 51.335938 38.265625 51.316406 38.402344 51.28125 38.558594 C 51.265625 38.644531 51.25 38.679688 51.230469 38.734375 C 51.195312 38.800781 51.160156 38.835938 51.179688 38.855469 C 51.195312 38.890625 51.300781 38.835938 51.371094 38.835938 C 51.558594 38.800781 51.75 38.925781 51.855469 38.992188 C 52.203125 39.21875 52.203125 39.828125 52.132812 40.226562 C 52.097656 40.382812 51.941406 40.679688 51.628906 41.269531 C 51.59375 41.320312 51.421875 41.667969 51.128906 42.070312 C 50.917969 42.347656 50.796875 42.503906 50.625 42.554688 C 50.539062 42.574219 50.3125 42.625 50.140625 42.625 C 49.914062 42.644531 49.828125 42.574219 49.773438 42.609375 C 49.742188 42.644531 49.757812 42.710938 49.757812 42.765625 C 49.773438 42.9375 49.742188 43.09375 49.757812 43.269531 C 49.773438 43.582031 49.6875 43.945312 49.652344 44.503906 C 49.621094 44.917969 49.585938 45.457031 49.722656 46.082031 C 49.773438 46.34375 49.863281 46.570312 50 46.8125 C 50.070312 46.933594 50.175781 47.109375 50.363281 47.265625 C 50.675781 47.527344 50.867188 47.785156 51.265625 47.527344 C 52.652344 46.621094 54.175781 45.859375 55.53125 44.902344 C 56.828125 43.964844 58.007812 42.765625 59.203125 41.667969 C 62.757812 38.4375 66.328125 35.1875 69.878906 31.957031 C 70.589844 30.964844 71.128906 30.304688 71.300781 30.097656 C 71.421875 29.941406 71.628906 29.695312 71.925781 29.402344 C 72.304688 28.984375 72.496094 28.8125 72.824219 28.480469 C 73.292969 27.992188 73.625 27.59375 73.8125 27.386719 C 74.59375 26.464844 75.164062 25.613281 75.652344 24.917969 C 75.808594 24.675781 76.117188 24.207031 76.363281 23.511719 C 76.535156 23.042969 76.621094 22.796875 76.621094 22.574219 C 76.621094 22.191406 76.5 22 76.257812 21.441406 C 75.945312 20.695312 75.789062 20.332031 75.753906 19.929688 C 75.738281 19.757812 75.773438 19.878906 75.910156 18.316406 C 75.929688 18.089844 75.945312 17.828125 76.050781 17.480469 C 76.117188 17.238281 76.1875 17.0625 76.292969 16.804688 C 76.449219 16.4375 76.519531 16.246094 76.691406 16.039062 C 76.882812 15.796875 76.984375 15.65625 77.175781 15.621094 C 77.4375 15.570312 77.714844 15.726562 77.871094 15.882812 C 77.972656 15.988281 77.972656 16.039062 78.078125 16.089844 C 78.269531 16.195312 78.40625 16.054688 78.613281 16.125 C 78.789062 16.195312 78.734375 16.316406 78.925781 16.402344 C 79.117188 16.492188 79.238281 16.386719 79.480469 16.4375 C 79.65625 16.472656 79.742188 16.578125 79.949219 16.75 C 79.914062 16.714844 79.863281 16.664062 80.710938 17.34375 C 81.25 17.777344 81.492188 17.96875 81.683594 18.125 C 81.75 18.175781 81.996094 18.382812 82.304688 18.699219 C 82.480469 18.886719 82.566406 18.992188 82.636719 19.148438 C 82.703125 19.289062 82.738281 19.445312 82.738281 19.652344 C 82.722656 20 82.652344 20.332031 82.566406 20.679688 Z M 82.566406 20.679688 " fill-opacity="1" fill-rule="nonzero"/></g><path fill="#400036" d="M 30.675781 20.277344 L 19.84375 19.792969 C 19.289062 19.773438 18.734375 19.773438 18.179688 19.792969 L 7.347656 20.277344 C 7 18.730469 7 17.132812 7.347656 15.570312 L 18.527344 16.089844 C 18.855469 16.109375 19.183594 16.109375 19.496094 16.089844 L 30.675781 15.585938 C 31.023438 17.132812 31.023438 18.730469 30.675781 20.277344 Z M 30.675781 20.277344 " fill-opacity="1" fill-rule="nonzero"/><path fill="#400036" d="M 55.0625 44.660156 C 54.871094 43.738281 55.40625 42.105469 54.664062 41.304688 C 54.664062 41.289062 54.664062 41.269531 54.664062 41.253906 L 54.699219 40.347656 C 54.714844 40.125 54.542969 39.933594 54.332031 39.898438 L 54.644531 32.929688 L 54.664062 32.738281 L 54.699219 31.886719 C 54.59375 31.886719 54.507812 31.902344 54.386719 31.921875 L 54.351562 32.753906 L 54.351562 32.945312 L 54.039062 39.878906 C 53.8125 39.898438 53.640625 40.070312 53.640625 40.296875 L 53.605469 41.148438 C 53.46875 41.460938 53.378906 41.792969 53.363281 42.121094 C 53.328125 42.539062 53.414062 42.972656 53.414062 43.390625 C 53.398438 43.824219 53.363281 44.554688 53.433594 44.988281 C 53.46875 45.199219 53.675781 45.476562 53.621094 45.09375 C 53.589844 44.867188 53.605469 44.761719 53.605469 44.535156 C 53.621094 44.726562 53.640625 44.917969 53.675781 45.109375 C 53.691406 45.199219 53.796875 45.300781 53.761719 45.144531 C 53.621094 44.257812 53.621094 42.851562 53.796875 41.964844 C 53.761719 42.261719 53.761719 42.554688 53.746094 42.851562 C 53.726562 43.390625 53.640625 44.484375 53.832031 45.007812 C 53.933594 45.285156 54.109375 45.039062 54.039062 44.832031 C 53.867188 44.363281 54.003906 43.25 54.003906 42.765625 C 54.003906 42.730469 54.003906 42.695312 54.003906 42.644531 C 54.003906 43.164062 53.953125 44.277344 54.074219 44.78125 C 54.125 44.972656 54.246094 44.953125 54.195312 44.746094 C 54.109375 44.347656 54.160156 43.355469 54.175781 42.957031 C 54.175781 42.78125 54.175781 42.609375 54.160156 42.433594 C 54.175781 42.503906 54.195312 42.554688 54.210938 42.625 C 54.265625 42.867188 54.246094 43.128906 54.230469 43.371094 C 54.195312 43.753906 54.175781 44.554688 54.28125 44.9375 C 54.351562 45.199219 54.542969 45.164062 54.472656 44.902344 C 54.421875 44.726562 54.421875 44.535156 54.421875 44.363281 C 54.4375 44.449219 54.507812 44.535156 54.542969 44.449219 C 54.542969 44.414062 54.558594 44.378906 54.558594 44.347656 C 54.558594 44.378906 54.609375 44.605469 54.609375 44.660156 C 54.628906 44.851562 54.820312 45.039062 54.800781 44.746094 C 54.765625 44.257812 54.941406 43.164062 54.886719 42.675781 C 54.835938 42.296875 54.644531 41.964844 54.488281 41.617188 C 54.851562 41.929688 54.921875 42.382812 54.957031 42.867188 C 54.976562 43.25 54.785156 44.3125 54.871094 44.695312 C 54.941406 45.023438 55.113281 44.972656 55.0625 44.660156 Z M 53.570312 42.957031 C 53.554688 42.800781 53.554688 42.644531 53.554688 42.488281 C 53.570312 42.207031 53.640625 41.929688 53.746094 41.6875 C 53.640625 42.105469 53.589844 42.539062 53.570312 42.957031 Z M 54.523438 42.9375 C 54.507812 43.25 54.488281 44 54.421875 44.292969 C 54.4375 43.875 54.507812 43.023438 54.421875 42.589844 C 54.351562 42.332031 54.246094 42.070312 54.210938 41.792969 C 54.246094 41.894531 54.265625 42 54.316406 42.105469 C 54.402344 42.296875 54.523438 42.433594 54.542969 42.660156 C 54.542969 42.765625 54.523438 42.851562 54.523438 42.9375 Z M 54.699219 42.78125 C 54.699219 42.957031 54.664062 43.128906 54.644531 43.285156 C 54.644531 43.179688 54.664062 43.078125 54.664062 42.972656 C 54.699219 42.453125 54.4375 42.140625 54.296875 41.652344 C 54.316406 41.652344 54.316406 41.652344 54.332031 41.652344 C 54.488281 42.015625 54.714844 42.398438 54.699219 42.78125 Z M 54.699219 42.78125 " fill-opacity="1" fill-rule="nonzero"/><path fill="#400036" d="M 58.058594 32.128906 C 58.007812 32.320312 57.972656 32.476562 57.867188 32.476562 L 54.785156 32.703125 L 54.488281 32.71875 L 54.28125 32.738281 C 54.175781 32.738281 54.074219 32.753906 53.96875 32.753906 L 52.203125 32.878906 L 39.429688 31.539062 L 33.988281 29.957031 C 33.882812 29.921875 33.882812 29.765625 33.863281 29.574219 L 46.308594 27.421875 L 46.34375 27.421875 Z M 58.058594 32.128906 " fill-opacity="1" fill-rule="nonzero"/><path fill="#400036" d="M 52.339844 32.128906 L 52.011719 34.214844 L 51.578125 36.699219 L 48.804688 35.902344 C 46.636719 35.273438 44.386719 35.050781 42.148438 35.207031 L 39.152344 35.429688 L 39.410156 31.800781 L 39.429688 31.554688 L 39.480469 30.808594 L 41.074219 30.636719 C 44.332031 30.269531 47.609375 30.601562 50.730469 31.609375 Z M 52.339844 32.128906 " fill-opacity="1" fill-rule="nonzero"/></svg>