<svg xmlns="http://www.w3.org/2000/svg" xmlns:xlink="http://www.w3.org/1999/xlink" width="120" zoomAndPan="magnify" viewBox="0 0 90 89.999999" height="120" preserveAspectRatio="xMidYMid meet" version="1.0"><defs><clipPath id="536c280ebe"><path d="M 2.726562 48 L 15.4375 48 L 15.4375 59.953125 L 2.726562 59.953125 Z M 2.726562 48 " clip-rule="nonzero"/></clipPath><clipPath id="95d2d0f400"><path d="M 74.761719 48 L 87.476562 48 L 87.476562 59.953125 L 74.761719 59.953125 Z M 74.761719 48 " clip-rule="nonzero"/></clipPath></defs><path fill="#400036" d="M 45.101562 30.027344 L 48.230469 39.941406 L 58.660156 39.847656 L 50.167969 45.882812 L 53.480469 55.742188 L 45.101562 49.554688 L 36.71875 55.742188 L 40.03125 45.882812 L 31.542969 39.847656 L 41.96875 39.941406 L 45.101562 30.027344 " fill-opacity="1" fill-rule="evenodd"/><path fill="#400036" d="M 24.039062 39.75 L 26.160156 46.460938 L 33.214844 46.394531 L 27.472656 50.480469 L 29.710938 57.148438 L 24.039062 52.964844 L 18.375 57.148438 L 20.613281 50.480469 L 14.867188 46.394531 L 21.925781 46.460938 L 24.039062 39.75 " fill-opacity="1" fill-rule="evenodd"/><path fill="#400036" d="M 66.160156 39.75 L 64.039062 46.460938 L 56.984375 46.394531 L 62.730469 50.480469 L 60.488281 57.148438 L 66.160156 52.964844 L 71.828125 57.148438 L 69.585938 50.480469 L 75.332031 46.394531 L 68.277344 46.460938 L 66.160156 39.75 " fill-opacity="1" fill-rule="evenodd"/><g clip-path="url(#536c280ebe)"><path fill="#400036" d="M 9.011719 48.027344 L 10.464844 52.628906 L 15.300781 52.585938 L 11.363281 55.382812 L 12.898438 59.953125 L 9.011719 57.085938 L 5.128906 59.953125 L 6.664062 55.382812 L 2.726562 52.585938 L 7.558594 52.628906 L 9.011719 48.027344 " fill-opacity="1" fill-rule="evenodd"/></g><g clip-path="url(#95d2d0f400)"><path fill="#400036" d="M 81.1875 48.027344 L 79.734375 52.628906 L 74.898438 52.585938 L 78.835938 55.382812 L 77.300781 59.953125 L 81.1875 57.085938 L 85.074219 59.953125 L 83.539062 55.382812 L 87.476562 52.585938 L 82.640625 52.628906 L 81.1875 48.027344 " fill-opacity="1" fill-rule="evenodd"/></g></svg>