<svg xmlns="http://www.w3.org/2000/svg" xmlns:xlink="http://www.w3.org/1999/xlink" width="120" zoomAndPan="magnify" viewBox="0 0 90 89.999999" height="120" preserveAspectRatio="xMidYMid meet" version="1.0"><defs><clipPath id="a889ae780c"><path d="M 11.042969 12.613281 L 79.292969 12.613281 L 79.292969 38 L 11.042969 38 Z M 11.042969 12.613281 " clip-rule="nonzero"/></clipPath><clipPath id="2b3ca6790b"><path d="M 11.042969 43 L 79.292969 43 L 79.292969 77.113281 L 11.042969 77.113281 Z M 11.042969 43 " clip-rule="nonzero"/></clipPath></defs><g clip-path="url(#a889ae780c)"><path fill="#400036" d="M 13.304688 37.152344 L 77.015625 37.152344 C 78.136719 37.152344 79.050781 36.25 79.050781 35.136719 C 79.050781 34.023438 78.136719 33.121094 77.015625 33.121094 L 74.152344 33.121094 C 74.0625 32.035156 73.484375 27.753906 69.808594 25.695312 C 69.140625 25.320312 68.363281 25.03125 67.480469 24.835938 C 69.824219 23.890625 71.480469 21.621094 71.480469 18.957031 C 71.480469 15.449219 68.609375 12.605469 65.070312 12.605469 C 61.527344 12.605469 58.65625 15.449219 58.65625 18.957031 C 58.65625 21.621094 60.3125 23.890625 62.65625 24.835938 C 61.773438 25.03125 60.996094 25.320312 60.328125 25.695312 C 56.652344 27.753906 56.074219 32.035156 55.984375 33.121094 L 54.242188 33.121094 C 54.152344 32.035156 53.574219 27.753906 49.898438 25.695312 C 49.234375 25.320312 48.453125 25.03125 47.570312 24.835938 C 49.914062 23.890625 51.570312 21.621094 51.570312 18.957031 C 51.570312 15.449219 48.699219 12.605469 45.160156 12.605469 C 41.617188 12.605469 38.746094 15.449219 38.746094 18.957031 C 38.746094 21.621094 40.402344 23.890625 42.746094 24.835938 C 41.863281 25.03125 41.085938 25.320312 40.417969 25.695312 C 36.742188 27.753906 36.164062 32.035156 36.074219 33.121094 L 34.332031 33.121094 C 34.242188 32.035156 33.664062 27.753906 29.988281 25.695312 C 29.324219 25.320312 28.546875 25.03125 27.660156 24.835938 C 30.003906 23.890625 31.660156 21.621094 31.660156 18.957031 C 31.660156 15.449219 28.789062 12.605469 25.25 12.605469 C 21.707031 12.605469 18.835938 15.449219 18.835938 18.957031 C 18.835938 21.621094 20.492188 23.890625 22.835938 24.835938 C 21.953125 25.03125 21.175781 25.320312 20.511719 25.695312 C 16.832031 27.753906 16.253906 32.035156 16.164062 33.121094 L 13.304688 33.121094 C 12.179688 33.121094 11.269531 34.023438 11.269531 35.136719 C 11.269531 36.25 12.179688 37.152344 13.304688 37.152344 " fill-opacity="1" fill-rule="nonzero"/></g><g clip-path="url(#2b3ca6790b)"><path fill="#400036" d="M 77.136719 73.070312 L 73.097656 73.070312 C 72.660156 70.515625 71.25 65.78125 66.75 63.257812 C 65.746094 62.699219 64.578125 62.261719 63.25 61.96875 C 66.773438 60.550781 69.261719 57.132812 69.261719 53.132812 C 69.261719 47.859375 64.949219 43.582031 59.625 43.582031 C 54.300781 43.582031 49.988281 47.859375 49.988281 53.132812 C 49.988281 57.132812 52.476562 60.550781 56 61.96875 C 54.671875 62.261719 53.503906 62.699219 52.503906 63.257812 C 48 65.78125 46.589844 70.515625 46.148438 73.070312 L 44.167969 73.070312 C 43.726562 70.515625 42.320312 65.78125 37.816406 63.257812 C 36.816406 62.699219 35.644531 62.261719 34.320312 61.96875 C 37.84375 60.550781 40.328125 57.132812 40.328125 53.132812 C 40.328125 47.859375 36.015625 43.582031 30.691406 43.582031 C 25.371094 43.582031 21.054688 47.859375 21.054688 53.132812 C 21.054688 57.132812 23.542969 60.550781 27.066406 61.96875 C 25.738281 62.261719 24.570312 62.699219 23.570312 63.257812 C 19.066406 65.78125 17.660156 70.515625 17.21875 73.070312 L 13.179688 73.070312 C 12.054688 73.070312 11.144531 73.972656 11.144531 75.085938 C 11.144531 76.199219 12.054688 77.101562 13.179688 77.101562 L 77.136719 77.101562 C 78.261719 77.101562 79.171875 76.199219 79.171875 75.085938 C 79.171875 73.972656 78.261719 73.070312 77.136719 73.070312 " fill-opacity="1" fill-rule="nonzero"/></g></svg>